<?xml version="1.0" encoding="UTF-8"?>
<svg version="1.1" xmlns="http://www.w3.org/2000/svg" width="1920" height="1080">
<path d="M0 0 C633.6 0 1267.2 0 1920 0 C1920 356.4 1920 712.8 1920 1080 C1286.4 1080 652.8 1080 0 1080 C0 723.6 0 367.2 0 0 Z " fill="#FEC007" transform="translate(0,0)"/>
<path d="M0 0 C4.26859821 0.00008081 8.53708805 -0.00680939 12.80566406 -0.02050781 C42.86363689 -0.11524516 72.80112564 0.5406442 102.81542969 2.18530273 C103.56804832 2.22636768 104.32066696 2.26743263 105.09609222 2.30974197 C114.38258518 2.82051298 123.66246938 3.41312543 132.94042969 4.06030273 C134.18039703 4.14556213 135.42036438 4.23082153 136.69790649 4.31866455 C156.31397044 5.67683541 175.82442391 7.41422916 195.33117676 9.87481689 C199.15035203 10.35214343 202.9714463 10.81348363 206.79234314 11.27679443 C212.15490979 11.92807839 217.51650368 12.58720277 222.87792969 13.24780273 C223.88640961 13.37177429 224.89488953 13.49574585 225.93392944 13.62347412 C238.93952683 15.22951123 251.88790366 17.03986038 264.81542969 19.18530273 C265.68700714 19.32914398 266.55858459 19.47298523 267.45657349 19.6211853 C292.64154087 23.78389955 317.81212592 28.02850877 342.81542969 33.18530273 C343.82444336 33.39268066 344.83345703 33.60005859 345.87304688 33.8137207 C361.67467708 37.10464303 377.35472786 40.95651503 393.03753662 44.7663269 C395.34879657 45.32743753 397.66050842 45.88669072 399.97271729 46.44387817 C413.66757891 49.75015875 427.19130463 53.3672895 440.6328125 57.59179688 C445.10481815 58.99106091 449.60885555 60.22982834 454.13330078 61.44691467 C458.31651145 62.59854941 462.45211839 63.88968716 466.58886719 65.19702148 C467.49402069 65.48201508 468.39917419 65.76700867 469.33175659 66.06063843 C516.74716319 81.03607019 563.52870631 97.57689543 608.81542969 118.18530273 C609.89211914 118.67289063 610.96880859 119.16047852 612.078125 119.6628418 C638.35650326 131.59509875 664.33007792 144.1793077 689.27929688 158.7121582 C691.71283466 160.12570913 694.15632994 161.51992487 696.60449219 162.90795898 C717.30734741 174.68649764 737.28454284 187.56013596 756.81542969 201.18530273 C757.48751465 201.65274902 758.15959961 202.12019531 758.85205078 202.60180664 C772.22674026 211.93126145 785.16569852 221.89800014 797.81542969 232.18530273 C798.646875 232.85432617 799.47832031 233.52334961 800.33496094 234.21264648 C817.70446959 248.27609932 834.04709987 263.35647571 849.87792969 279.12280273 C851.05597168 280.29383545 851.05597168 280.29383545 852.2578125 281.48852539 C856.43549845 285.67784087 860.44774018 289.95238323 864.30737305 294.43652344 C866.1785742 296.60641397 868.12145322 298.70560381 870.06542969 300.81030273 C874.64147569 305.88273339 878.84745119 311.19373039 883.02246094 316.59545898 C884.7595703 318.84274317 886.52364625 321.04771886 888.32714844 323.24389648 C902.15556356 340.10488224 914.35795677 359.069762 924.81542969 378.18530273 C925.2864209 379.04510742 925.75741211 379.90491211 926.24267578 380.79077148 C933.56517526 394.26586197 940.16223781 407.92734654 945.81542969 422.18530273 C946.16057617 423.05445313 946.50572266 423.92360352 946.86132812 424.8190918 C956.98203811 450.65778707 962.98862097 477.28666264 966.56542969 504.74780273 C966.69336914 505.67923096 966.82130859 506.61065918 966.953125 507.5703125 C968.20233975 517.9080044 967.81542969 527.53393936 967.81542969 538.18530273 C334.21542969 538.18530273 -299.38457031 538.18530273 -952.18457031 538.18530273 C-952.18457031 516.13202656 -952.18457031 516.13202656 -950.87207031 505.49780273 C-950.73599365 504.34352783 -950.59991699 503.18925293 -950.4597168 502 C-949.40079214 493.30339056 -948.02639277 484.75338856 -946.18457031 476.18530273 C-945.91781433 474.8352653 -945.65223107 473.48499572 -945.38769531 472.13452148 C-940.91238344 449.97627002 -933.46100483 428.76072772 -924.18457031 408.18530273 C-923.72566406 407.16581543 -923.26675781 406.14632813 -922.79394531 405.09594727 C-910.45062677 377.96353587 -895.05493237 352.97781966 -877.18457031 329.18530273 C-876.76175781 328.62069336 -876.33894531 328.05608398 -875.90332031 327.47436523 C-867.15895085 315.83342339 -857.80200404 304.79392397 -847.88769531 294.13452148 C-845.89337295 291.98482621 -843.97800399 289.78008367 -842.07128906 287.55249023 C-837.69280453 282.53025078 -832.98786742 277.8384571 -828.26928711 273.13964844 C-826.74965363 271.62537694 -825.23544514 270.10582843 -823.72167969 268.58569336 C-818.38088099 263.2412408 -812.93337673 258.09237054 -807.18457031 253.18530273 C-805.57688659 251.73084756 -803.97217317 250.27309379 -802.37207031 248.81030273 C-798.10711723 244.96602029 -793.73596181 241.29003368 -789.27050781 237.68139648 C-787.03517214 235.87332118 -784.81268826 234.0541751 -782.59863281 232.22045898 C-772.40930143 223.81105904 -761.89793059 215.91304666 -751.18457031 208.18530273 C-750.48251465 207.67644531 -749.78045898 207.16758789 -749.05712891 206.64331055 C-723.79324499 188.37140976 -697.23609521 171.8516387 -669.97851562 156.73657227 C-667.37271075 155.28976309 -664.77435685 153.83036768 -662.17675781 152.36889648 C-634.98159536 137.18612565 -606.84324048 123.37232354 -578.18457031 111.18530273 C-577.46652222 110.87977478 -576.74847412 110.57424683 -576.00866699 110.25946045 C-552.02082019 100.07526155 -527.79460703 90.75057032 -503.18457031 82.18530273 C-502.40567444 81.9137738 -501.62677856 81.64224487 -500.82427979 81.36248779 C-495.30225377 79.43845405 -489.77643995 77.52562705 -484.24707031 75.62280273 C-483.52571899 75.37445679 -482.80436768 75.12611084 -482.06115723 74.87023926 C-473.15106498 71.80930141 -464.20668156 68.90172708 -455.18457031 66.18530273 C-453.59596596 65.69983074 -452.00741881 65.21417148 -450.41894531 64.72827148 C-428.74194036 58.15896085 -406.91308569 52.21990944 -384.93457031 46.74780273 C-383.81714447 46.4687207 -382.69971863 46.18963867 -381.5484314 45.90209961 C-361.51092649 40.90672487 -341.41396541 36.33003754 -321.18457031 32.18530273 C-320.04213867 31.94908203 -318.89970703 31.71286133 -317.72265625 31.46948242 C-310.55290118 29.99049036 -303.37337182 28.56857993 -296.18457031 27.18530273 C-295.5536145 27.06370789 -294.92265869 26.94211304 -294.27258301 26.8168335 C-290.05031598 26.00382115 -285.8268923 25.19712274 -281.60220337 24.39678955 C-280.22897665 24.13652127 -278.85590171 23.87545055 -277.48300171 23.61346436 C-269.61912304 22.11589696 -261.76142849 20.79997004 -253.83032227 19.71533203 C-250.69753447 19.25987885 -247.58584027 18.73612795 -244.46946716 18.18122864 C-230.25803299 15.67725484 -215.90842146 14.11806382 -201.58017731 12.44972229 C-199.28282661 12.18218834 -196.98561625 11.91347171 -194.68841553 11.64465332 C-174.16363502 9.24719481 -153.65585562 6.98582708 -133.0390625 5.53588867 C-128.23570161 5.19473582 -123.43554263 4.81593939 -118.63510132 4.43615723 C-113.91028432 4.06310276 -109.18490354 3.6975249 -104.45941162 3.33312988 C-102.17593967 3.15638628 -99.89260398 2.9778696 -97.60943604 2.79724121 C-65.09038532 0.23970723 -32.5998108 -0.00309032 0 0 Z " fill="#FDE7AA" transform="translate(952.1845703125,541.814697265625)"/>
<path d="M0 0 C0 4.62719007 -2.13714671 7.45375593 -5 11 C-8.51308675 14.20454138 -12.24683573 17.08445179 -16 20 C-17.36218075 21.17829844 -18.71774967 22.36434719 -20.0625 23.5625 C-23 26 -23 26 -25 26 C-26.38953041 28.95275212 -27.02477526 30.7026969 -26.75 34 C-27 37 -27 37 -29.5625 39.8125 C-32.8952448 42.25493709 -35.84347245 42.92302727 -40 43 C-42.375 42.375 -42.375 42.375 -44 41 C-44.75 38.375 -44.75 38.375 -45 36 C-39.25 31 -39.25 31 -37 31 C-37 30.34 -37 29.68 -37 29 C-37.969375 29.061875 -38.93875 29.12375 -39.9375 29.1875 C-43.87767534 29.19545995 -47.09904843 28.13203393 -50.77734375 26.80078125 C-53.81264439 25.70721951 -56.89144164 24.85981402 -60 24 C-60 23.34 -60 22.68 -60 22 C-60.639375 21.87625 -61.27875 21.7525 -61.9375 21.625 C-62.9584375 21.315625 -62.9584375 21.315625 -64 21 C-64.33 20.34 -64.66 19.68 -65 19 C-66.97888961 18.27306096 -68.97954558 17.60183749 -71 17 C-71 16.01 -71 15.02 -71 14 C-71.66 13.34 -72.32 12.68 -73 12 C-68.4937755 11.21630878 -65.24993418 10.90872455 -60.8125 11.875 C-55.12144236 13.04450823 -49.39987412 13.76371636 -43.63671875 14.48046875 C-39.69404065 15.04370848 -35.89231822 15.88412097 -32.05078125 16.92578125 C-29.21525865 17.02840016 -28.1531494 15.74027745 -26 14 C-25.13375 14.061875 -24.2675 14.12375 -23.375 14.1875 C-18.82557852 13.93475436 -16.18327856 11.94843365 -12.40625 9.51953125 C-10 8 -10 8 -6.5 6.375 C-3.71433292 4.8428831 -3.15121056 3.8780264 -2 1 C-1.34 0.67 -0.68 0.34 0 0 Z " fill="#080601" transform="translate(1037,293)"/>
<path d="M0 0 C4.90014369 1.50491304 7.9644689 4.32347545 11.625 7.75 C12.19734375 8.26304687 12.7696875 8.77609375 13.359375 9.3046875 C18.54953995 14.10860761 20.93127481 19.01735876 22.6875 25.875 C22.93886719 26.84179688 23.19023438 27.80859375 23.44921875 28.8046875 C23.63097656 29.52914062 23.81273437 30.25359375 24 31 C25.17369141 30.94585937 25.17369141 30.94585937 26.37109375 30.890625 C29 31 29 31 31.0625 32.75 C31.701875 33.4925 32.34125 34.235 33 35 C33.721875 35.639375 34.44375 36.27875 35.1875 36.9375 C37.2703343 39.30762179 37.65602657 40.90423916 38 44 C33.90087399 43.50313624 31.17137182 42.00940617 27.71484375 39.921875 C25.53498296 38.75001362 23.44579493 38.29645999 21 38 C21.33 39.32 21.66 40.64 22 42 C13.89706493 41.8095464 13.89706493 41.8095464 10.4375 38.6875 C9 36 9 36 9 32 C10.98 32 12.96 32 15 32 C12.34742552 21.48277489 8.01870224 11.93042272 1.1015625 3.5234375 C0 2 0 2 0 0 Z " fill="#0F0C01" transform="translate(877,212)"/>
<path d="M0 0 C0 0.99 0 1.98 0 3 C0.66 3.33 1.32 3.66 2 4 C1.05125 4.37125 0.1025 4.7425 -0.875 5.125 C-4.14876891 6.50622502 -7.05709683 8.23355111 -10.0625 10.125 C-13.72163784 12.38193388 -16.61688047 13.7693095 -21 14 C-20.01 15.32 -19.02 16.64 -18 18 C-20.35968744 20.09749995 -21.54616994 20.96905704 -24.75 21.1875 C-25.86375 21.0946875 -25.86375 21.0946875 -27 21 C-27 20.01 -27 19.02 -27 18 C-27.928125 18.165 -28.85625 18.33 -29.8125 18.5 C-38.52412624 19.72698961 -47.29826899 18.94254727 -56 18 C-56 16.35 -56 14.7 -56 13 C-55.27522461 12.99589111 -54.55044922 12.99178223 -53.80371094 12.98754883 C-50.45170066 12.9542207 -47.10141516 12.88353543 -43.75 12.8125 C-42.61046875 12.80669922 -41.4709375 12.80089844 -40.296875 12.79492188 C-29.31278579 12.51407869 -20.776376 9.05219539 -11.671875 3.0703125 C-7.76785526 0.57101014 -4.60957986 -0.26340456 0 0 Z " fill="#100D04" transform="translate(904,311)"/>
<path d="M0 0 C2.19823956 0.87981797 4.40692191 1.73396732 6.625 2.5625 C12.73114147 4.84696551 12.73114147 4.84696551 15.00390625 6.140625 C21.35917462 8.87674837 30.3723621 7.03962947 37 6 C39.67350529 5.91912884 42.32437312 5.95305918 45 6 C44.28613281 7.94116211 44.28613281 7.94116211 43 10 C40.94042969 10.68188477 40.94042969 10.68188477 38.421875 10.94140625 C37.50792969 11.05033203 36.59398437 11.15925781 35.65234375 11.27148438 C34.69457031 11.36751953 33.73679687 11.46355469 32.75 11.5625 C26.47668664 12.22759136 21.6065115 12.90734805 16 16 C12.6875 15.8125 12.6875 15.8125 10 15 C9.67 14.34 9.34 13.68 9 13 C9.66 12.67 10.32 12.34 11 12 C5.29821553 9.03945806 -0.46628145 6.56048628 -6.4609375 4.24609375 C-9 3 -9 3 -11 0 C-10 -2 -10 -2 -8.3125 -2.8125 C-4.96297825 -3.08408284 -2.97328278 -1.52038832 0 0 Z " fill="#130F02" transform="translate(997,218)"/>
<path d="M0 0 C-0.33 1.32 -0.66 2.64 -1 4 C-2.32 4 -3.64 4 -5 4 C-5.66 5.65 -6.32 7.3 -7 9 C-7.66 9 -8.32 9 -9 9 C-10.34110539 11.20887947 -11.06609767 12.45469419 -10.75 15.0625 C-9.97514339 17.27229292 -9.97514339 17.27229292 -8 20 C-9 21 -9 21 -11.3125 21.4375 C-12.199375 21.293125 -13.08625 21.14875 -14 21 C-15.3726682 19.02678947 -16.70427617 17.02456848 -18 15 C-20.89593847 13.4796323 -23.81541656 12.70768521 -27 12 C-27.33 10.35 -27.66 8.7 -28 7 C-25.625 6.875 -25.625 6.875 -23 7 C-22.34 7.66 -21.68 8.32 -21 9 C-20.01 8.67 -19.02 8.34 -18 8 C-17.01 8.33 -16.02 8.66 -15 9 C-14.87625 8.0925 -14.7525 7.185 -14.625 6.25 C-12.42117476 1.84234951 -9.87880324 1.24461683 -5.41015625 -0.43359375 C-3 -1 -3 -1 0 0 Z " fill="#1A1405" transform="translate(958,252)"/>
<path d="M0 0 C1.20527344 0.00322266 2.41054688 0.00644531 3.65234375 0.00976562 C4.90660156 0.01814453 6.16085937 0.02652344 7.453125 0.03515625 C9.35771484 0.04192383 9.35771484 0.04192383 11.30078125 0.04882812 C14.43494336 0.06061069 17.56901041 0.07706209 20.703125 0.09765625 C20.703125 0.42765625 20.703125 0.75765625 20.703125 1.09765625 C12.123125 1.09765625 3.543125 1.09765625 -5.296875 1.09765625 C-4.966875 2.41765625 -4.636875 3.73765625 -4.296875 5.09765625 C-5.286875 5.59265625 -5.286875 5.59265625 -6.296875 6.09765625 C-7.286875 5.43765625 -8.276875 4.77765625 -9.296875 4.09765625 C-8.966875 3.76765625 -8.636875 3.43765625 -8.296875 3.09765625 C-8.956875 2.43765625 -9.616875 1.77765625 -10.296875 1.09765625 C-6.82022405 0.02877101 -3.62550022 -0.01710142 0 0 Z " fill="#9A7A1B" transform="translate(853.296875,322.90234375)"/>
<path d="M0 0 C-0.66 1.32 -1.32 2.64 -2 4 C-4.31 4 -6.62 4 -9 4 C-9 3.67 -9 3.34 -9 3 C-11.97 2.505 -11.97 2.505 -15 2 C-15 1.67 -15 1.34 -15 1 C-9.91913204 0.15318867 -5.15171623 -0.09038099 0 0 Z " fill="#322704" transform="translate(1042,224)"/>
<path d="M0 0 C0.99 -0.33 1.98 -0.66 3 -1 C3.99 -0.34 4.98 0.32 6 1 C2.7 2.32 -0.6 3.64 -4 5 C-4.33 4.01 -4.66 3.02 -5 2 C-5.66 1.34 -6.32 0.68 -7 0 C-3.75370153 -1.08209949 -3.12563502 -0.78140875 0 0 Z " fill="#74580D" transform="translate(971,305)"/>
<path d="M0 0 C-1.14453125 1.48828125 -1.14453125 1.48828125 -3 3 C-5.69921875 3.29296875 -5.69921875 3.29296875 -8.6875 3.1875 C-9.68136719 3.16042969 -10.67523437 3.13335937 -11.69921875 3.10546875 C-12.45847656 3.07066406 -13.21773437 3.03585938 -14 3 C-14.33 2.34 -14.66 1.68 -15 1 C-9.92928099 0.28832014 -5.11791642 -0.10662326 0 0 Z " fill="#070500" transform="translate(1034,226)"/>
<path d="M0 0 C2 1 4 2 6 3 C5.67 3.99 5.34 4.98 5 6 C2.03 5.67 -0.94 5.34 -4 5 C-3.34 4.01 -2.68 3.02 -2 2 C-1.34 2 -0.68 2 0 2 C0 1.34 0 0.68 0 0 Z " fill="#C1930C" transform="translate(966,300)"/>
<path d="M0 0 C0 3.99904969 -1.72586967 5.80200422 -4 9 C-5.32 8.34 -6.64 7.68 -8 7 C-7.38125 6.7525 -6.7625 6.505 -6.125 6.25 C-3.62181694 4.77753937 -3.16954719 3.58971163 -2 1 C-1.34 0.67 -0.68 0.34 0 0 Z " fill="#664F18" transform="translate(1037,293)"/>
<path d="M0 0 C0.66 0.66 1.32 1.32 2 2 C1.01 3.32 0.02 4.64 -1 6 C-2.32 5.34 -3.64 4.68 -5 4 C-4.67 3.01 -4.34 2.02 -4 1 C-2.0625 0.1875 -2.0625 0.1875 0 0 Z " fill="#7E620D" transform="translate(991,215)"/>
</svg>
