<?xml version="1.0" encoding="UTF-8"?>
<svg version="1.1" xmlns="http://www.w3.org/2000/svg" width="1920" height="1080">
<path d="M0 0 C633.6 0 1267.2 0 1920 0 C1920 356.4 1920 712.8 1920 1080 C1286.4 1080 652.8 1080 0 1080 C0 723.6 0 367.2 0 0 Z " fill="#142749" transform="translate(0,0)"/>
<path d="M0 0 C6.07394575 0.00576823 12.14784797 0.00235736 18.22179222 -0.00357246 C22.95224332 -0.00718968 27.68268411 -0.00603536 32.41313553 -0.00344467 C34.65448639 -0.00278232 36.89583822 -0.00357937 39.13718796 -0.00592422 C42.25456994 -0.00847791 45.37188108 -0.00457525 48.48925781 0.00097656 C49.3942099 -0.00104767 50.29916199 -0.0030719 51.23153687 -0.00515747 C56.40238623 0.01180885 61.45429827 0.33222437 66.59386826 0.89625168 C69.44458408 1.19244305 72.28120059 1.30944544 75.14575195 1.38305664 C76.27199478 1.4155098 77.39823761 1.44796295 78.55860901 1.48139954 C80.3391996 1.53000374 80.3391996 1.53000374 82.15576172 1.57958984 C97.09865908 2.04511346 111.99616286 2.91222771 126.90966797 3.94287109 C128.19209381 4.03062805 129.47451965 4.11838501 130.79580688 4.20880127 C150.7252271 5.58320145 170.54512973 7.32006379 190.36291504 9.81988525 C194.18209031 10.29721179 198.00318458 10.75855199 201.82408142 11.22186279 C207.18664807 11.87314675 212.54824196 12.53227113 217.90966797 13.19287109 C218.91814789 13.31684265 219.92662781 13.44081421 220.96566772 13.56854248 C233.97126511 15.17457959 246.91964194 16.98492873 259.84716797 19.13037109 C260.71874542 19.27421234 261.59032288 19.41805359 262.48831177 19.56625366 C287.67327915 23.7289679 312.8438642 27.97357713 337.84716797 33.13037109 C338.85618164 33.33774902 339.86519531 33.54512695 340.90478516 33.75878906 C356.70641536 37.04971139 372.38646614 40.90158339 388.0692749 44.71139526 C390.38053485 45.27250589 392.69224671 45.83175908 395.00445557 46.38894653 C408.69931719 49.69522711 422.22304291 53.31235786 435.66455078 57.53686523 C440.13655643 58.93612927 444.64059383 60.1748967 449.16503906 61.39198303 C453.34824973 62.54361777 457.48385667 63.83475552 461.62060547 65.14208984 C462.52575897 65.42708344 463.43091248 65.71207703 464.36349487 66.00570679 C511.77890148 80.98113855 558.56044459 97.52196379 603.84716797 118.13037109 C604.92385742 118.61795898 606.00054688 119.10554687 607.10986328 119.60791016 C632.4705877 131.12348685 657.72839246 143.17202969 681.84716797 157.13037109 C682.73178711 157.63713379 683.61640625 158.14389648 684.52783203 158.66601562 C707.59643939 171.88427307 730.04032261 185.91744671 751.84716797 201.13037109 C752.51925293 201.59781738 753.19133789 202.06526367 753.88378906 202.546875 C767.25847854 211.87632981 780.1974368 221.8430685 792.84716797 232.13037109 C793.67861328 232.79939453 794.51005859 233.46841797 795.36669922 234.15771484 C812.73620787 248.22116768 829.07883815 263.30154407 844.90966797 279.06787109 C846.08770996 280.23890381 846.08770996 280.23890381 847.28955078 281.43359375 C851.46723673 285.62290923 855.47947846 289.89745159 859.33911133 294.3815918 C861.21031248 296.55148233 863.1531915 298.65067216 865.09716797 300.75537109 C869.67321397 305.82780175 873.87918947 311.13879875 878.05419922 316.54052734 C879.79130858 318.78781153 881.55538453 320.99278722 883.35888672 323.18896484 C897.18730184 340.0499506 909.38969505 359.01483035 919.84716797 378.13037109 C920.31815918 378.99017578 920.78915039 379.84998047 921.27441406 380.73583984 C928.59691355 394.21093033 935.19397609 407.8724149 940.84716797 422.13037109 C941.19231445 422.99952148 941.53746094 423.86867188 941.89306641 424.76416016 C952.1497991 450.95012841 958.29266695 477.93957774 961.59716797 505.81787109 C961.78907715 507.38299438 961.78907715 507.38299438 961.98486328 508.97973633 C963.06580761 518.83992778 962.84716797 528.02026675 962.84716797 538.13037109 C329.24716797 538.13037109 -304.35283203 538.13037109 -957.15283203 538.13037109 C-957.15283203 525.83770309 -956.98623521 514.1801869 -955.52783203 502.06787109 C-955.39628723 500.94591843 -955.39628723 500.94591843 -955.26208496 499.80130005 C-953.58067731 485.64496258 -950.94861365 471.88360937 -947.15283203 458.13037109 C-946.85892578 457.06028809 -946.56501953 455.99020508 -946.26220703 454.88769531 C-941.75227751 438.78046291 -936.02487906 423.37278862 -929.15283203 408.13037109 C-928.69392578 407.11088379 -928.23501953 406.09139648 -927.76220703 405.04101562 C-915.41888849 377.90860423 -900.02319409 352.92288802 -882.15283203 329.13037109 C-881.73001953 328.56576172 -881.30720703 328.00115234 -880.87158203 327.41943359 C-872.12721257 315.77849175 -862.77026576 304.73899233 -852.85595703 294.07958984 C-850.86163467 291.92989457 -848.94626571 289.72515203 -847.03955078 287.49755859 C-842.66106625 282.47531914 -837.95612914 277.78352546 -833.23754883 273.0847168 C-831.71791535 271.5704453 -830.20370686 270.05089679 -828.68994141 268.53076172 C-823.34914271 263.18630916 -817.90163845 258.0374389 -812.15283203 253.13037109 C-810.54514831 251.67591592 -808.94043489 250.21816214 -807.34033203 248.75537109 C-803.07537895 244.91108865 -798.70422353 241.23510204 -794.23876953 237.62646484 C-792.00343386 235.81838954 -789.78094998 233.99924346 -787.56689453 232.16552734 C-777.37756314 223.7561274 -766.86619231 215.85811502 -756.15283203 208.13037109 C-755.45077637 207.62151367 -754.7487207 207.11265625 -754.02539062 206.58837891 C-728.7615067 188.31647812 -702.20435693 171.79670706 -674.94677734 156.68164062 C-672.34097246 155.23483145 -669.74261857 153.77543604 -667.14501953 152.31396484 C-639.94985708 137.13119401 -611.8115022 123.3173919 -583.15283203 111.13037109 C-582.43478394 110.82484314 -581.71673584 110.51931519 -580.97692871 110.20452881 C-556.98908191 100.02032991 -532.76286875 90.69563868 -508.15283203 82.13037109 C-507.37393616 81.85884216 -506.59504028 81.58731323 -505.7925415 81.30755615 C-500.27051549 79.38352241 -494.74470167 77.47069541 -489.21533203 75.56787109 C-488.49398071 75.31952515 -487.77262939 75.0711792 -487.02941895 74.81530762 C-478.1193267 71.75436976 -469.17494327 68.84679543 -460.15283203 66.13037109 C-458.56422767 65.6448991 -456.97568053 65.15923984 -455.38720703 64.67333984 C-433.485585 58.035343 -411.42879194 52.06417921 -389.22509766 46.52319336 C-385.41799339 45.57166046 -381.61352032 44.61007834 -377.80908203 43.64794922 C-361.73505777 39.61022807 -345.62637826 36.02019757 -329.37646484 32.77461243 C-325.13426574 31.92681115 -320.89525906 31.06356342 -316.65614319 30.20050049 C-306.63949221 28.17238609 -296.60412769 26.23945387 -286.56240845 24.33984375 C-285.19257943 24.08053767 -283.82292192 23.82032351 -282.45346069 23.55908203 C-274.58883836 22.06131478 -266.73045231 20.74514262 -258.79858398 19.66040039 C-255.66579619 19.20494721 -252.55410199 18.68119631 -249.43772888 18.126297 C-235.2262947 15.6223232 -220.87668318 14.06313218 -206.54843903 12.39479065 C-204.25108832 12.1272567 -201.95387797 11.85854007 -199.65667725 11.58972168 C-179.13189674 9.19226317 -158.62411734 6.93089544 -138.00732422 5.48095703 C-133.20396333 5.13980418 -128.40380434 4.76100775 -123.60336304 4.38122559 C-118.87854604 4.00817112 -114.15316525 3.64259326 -109.42767334 3.27819824 C-107.14420139 3.10145464 -104.8608657 2.92293796 -102.57769775 2.74230957 C-68.39793554 0.05416519 -34.26372617 -0.03272947 0 0 Z " fill="#6F96DC" transform="translate(957.15283203125,541.86962890625)"/>
<path d="M0 0 C7.84868496 0.35712734 13.58556162 2.7546862 20.5625 6.25 C21.55185547 6.72824219 22.54121094 7.20648438 23.56054688 7.69921875 C28.01035307 9.8783541 32.27464021 12.1146699 36.40234375 14.859375 C38.71362522 16.33596114 40.00806273 17.00158273 42.74609375 17.5390625 C45.72078604 16.82761097 46.93833462 15.56055745 49.0625 13.375 C58.30102415 4.67628945 69.29108116 0.69323706 81.83984375 0.9296875 C82.90912109 0.96449219 82.90912109 0.96449219 84 1 C84 2.32 84 3.64 84 5 C83.11699219 5.29132813 82.23398437 5.58265625 81.32421875 5.8828125 C69.46051744 9.93507568 59.82636442 14.9119949 50.21484375 23.14453125 C47.50946088 25.41094547 46.42076565 25.94555419 42.890625 26.40234375 C37.66414259 25.8618541 34.89368787 23.62974985 30.75 20.5625 C22.1827451 14.5045357 13.29794366 10.02031617 3.68554688 5.86279297 C2 5 2 5 0 3 C0 2.01 0 1.02 0 0 Z " fill="#F5F6F7" transform="translate(840,310)"/>
<path d="M0 0 C9.85419791 0.21987054 19.33004521 6.30032678 27.60522461 11.16381836 C35.34718442 15.70533456 41.20007914 18.65457284 50.25 16.375 C53.97977559 14.83848343 57.43955225 12.93959809 60.9375 10.9375 C66.63880909 7.74100151 71.84782222 4.83760423 78.25 3.375 C78.25 4.035 78.25 4.695 78.25 5.375 C76.23737127 6.84929643 74.23937929 8.18532545 72.125 9.5 C71.50206055 9.89380859 70.87912109 10.28761719 70.23730469 10.69335938 C47.00155782 25.25209801 47.00155782 25.25209801 33.25 23.375 C28.90459711 21.90666561 25.18070593 19.7156465 21.25 17.375 C19.33399509 16.33184177 17.40695776 15.31159031 15.47729492 14.29394531 C13.54238434 13.27237751 11.61678686 12.2347017 9.69140625 11.1953125 C6.96585095 9.75364534 4.23562227 8.41487851 1.4375 7.125 C-1.89116226 5.29749915 -2.35040703 4.67940486 -3.75 1.375 C-2.75 0.375 -2.75 0.375 0 0 Z " fill="#F4F5F6" transform="translate(1009.75,279.625)"/>
<path d="M0 0 C1.61648438 0.01353516 1.61648438 0.01353516 3.265625 0.02734375 C4.08546875 0.03894531 4.9053125 0.05054688 5.75 0.0625 C5.75 1.0525 5.75 2.0425 5.75 3.0625 C4.74646484 3.23072266 4.74646484 3.23072266 3.72265625 3.40234375 C-4.04175068 4.99691323 -10.36600795 7.95686824 -17.19702148 11.83764648 C-23.70168539 15.49800453 -30.6544354 18.47676243 -38.25 17.0625 C-45.17938183 14.56630163 -51.83461165 11.3935459 -58.3671875 8 C-61.33692809 6.52129099 -64.40163047 5.26370999 -67.46484375 3.9921875 C-69.25 3.0625 -69.25 3.0625 -70.25 1.0625 C-64.20006994 1.50249491 -58.45403251 2.61196585 -52.5625 4 C-51.83812744 4.16983398 -51.11375488 4.33966797 -50.36743164 4.51464844 C-47.1841962 5.2811654 -44.10304454 6.11189679 -40.99609375 7.15625 C-30.65028511 10.57051402 -21.65598287 5.88757687 -12.19775391 1.81860352 C-8.03984601 0.20453473 -4.45935661 -0.04847127 0 0 Z " fill="#F1F2F4" transform="translate(958.25,242.9375)"/>
<path d="M0 0 C11.56431634 0.2223907 20.34471754 7.87117385 28.52734375 15.375 C30.84244599 17.26428334 30.84244599 17.26428334 33.38452148 16.78100586 C36.1991357 15.94053625 37.96961513 14.87549737 40.3203125 13.12890625 C41.10277344 12.55462891 41.88523437 11.98035156 42.69140625 11.38867188 C43.49449219 10.78603516 44.29757812 10.18339844 45.125 9.5625 C46.73159872 8.37606899 48.33836273 7.18986174 49.9453125 6.00390625 C51.00516357 5.21222046 51.00516357 5.21222046 52.08642578 4.40454102 C55.70215739 1.75063646 57.51722827 0.75768801 62 1 C58.46206058 4.78516892 54.49158733 7.52910469 50.21020508 10.41381836 C45.537614 13.58276612 41.10732157 16.99673138 36.73046875 20.56640625 C33.06004719 22.49350884 29.99302529 22.94058744 26 22 C22.88557635 20.30681655 20.26750357 18.15344886 17.5625 15.875 C16.07730827 14.67486796 14.59034543 13.47692419 13.1015625 12.28125 C12.39676758 11.70890625 11.69197266 11.1365625 10.96582031 10.546875 C7.92549269 8.15448605 4.6939083 6.12076977 1.37109375 4.1484375 C0.91863281 3.76945313 0.46617187 3.39046875 0 3 C0 2.01 0 1.02 0 0 Z " fill="#F5F5F7" transform="translate(832,200)"/>
<path d="M0 0 C-3.14600471 3.376763 -6.63451231 5.98516091 -10.4375 8.5625 C-10.99759766 8.94857422 -11.55769531 9.33464844 -12.13476562 9.73242188 C-15.35807237 11.94021774 -18.62802873 14.02723924 -22 16 C-18.83423951 8.22949699 -8.56511639 -0.78003739 0 0 Z " fill="#EDEEF1" transform="translate(894,201)"/>
<path d="M0 0 C0 0.66 0 1.32 0 2 C-2.31 3.32 -4.62 4.64 -7 6 C-7 4.68 -7 3.36 -7 2 C-2.25 0 -2.25 0 0 0 Z " fill="#DCDFE4" transform="translate(1088,283)"/>
</svg>
