<?xml version="1.0" standalone="no"?>
<!DOCTYPE svg PUBLIC "-//W3C//DTD SVG 20010904//EN"
 "http://www.w3.org/TR/2001/REC-SVG-20010904/DTD/svg10.dtd">
<svg version="1.0" xmlns="http://www.w3.org/2000/svg"
 width="500.000000pt" height="500.000000pt" viewBox="0 0 500.000000 500.000000"
 preserveAspectRatio="xMidYMid meet">

<g transform="translate(0.000000,500.000000) scale(0.100000,-0.100000)"
fill="#000000" stroke="none">
<path d="M1702 4129 c-59 -29 -100 -73 -131 -139 -22 -46 -26 -69 -26 -140 0
-97 23 -161 78 -219 40 -42 121 -81 168 -81 92 0 184 63 231 158 32 66 33 215
2 283 -61 132 -208 194 -322 138z"/>
<path d="M2874 4131 c-54 -25 -112 -83 -138 -140 -17 -37 -21 -65 -21 -141 0
-84 3 -101 27 -147 85 -160 249 -200 374 -90 25 22 57 63 72 91 23 44 27 63
27 141 0 82 -3 96 -33 158 -28 56 -44 74 -89 105 -69 45 -153 55 -219 23z"/>
<path d="M4123 3600 c-317 -26 -501 -165 -569 -430 -24 -93 -29 -491 -15
-1200 11 -580 22 -819 42 -942 9 -59 15 -71 49 -102 50 -45 122 -66 229 -66
140 0 201 44 173 124 -17 48 -30 147 -41 316 -15 220 -24 470 -18 470 2 0 24
-11 48 -24 68 -38 158 -48 317 -36 75 5 164 17 196 26 217 58 366 215 426 450
53 208 50 704 -6 934 -22 86 -75 201 -124 266 -43 57 -140 132 -211 162 -109
47 -304 67 -496 52z m300 -450 c139 -65 172 -158 171 -470 -2 -311 -29 -438
-112 -512 -67 -61 -157 -79 -277 -57 -113 21 -177 74 -209 171 -40 125 -48
598 -11 716 38 123 144 185 305 178 62 -2 98 -10 133 -26z"/>
<path d="M500 3546 c-156 -35 -307 -155 -375 -298 -70 -148 -69 -325 5 -474
69 -140 211 -253 418 -330 182 -69 303 -160 318 -238 10 -56 -13 -98 -71 -126
-42 -20 -57 -22 -153 -17 -159 7 -351 69 -450 144 -73 56 -134 36 -169 -55
-22 -56 -24 -169 -4 -226 30 -88 118 -150 282 -199 263 -80 492 -88 652 -21
226 94 369 329 337 554 -25 175 -133 337 -295 444 -54 36 -185 96 -308 141
-89 32 -177 117 -177 171 0 71 50 108 151 112 128 6 262 -39 398 -136 60 -43
66 -44 89 -31 54 30 122 214 109 295 -18 110 -187 229 -405 285 -87 22 -262
25 -352 5z"/>
<path d="M1521 3481 c-24 -24 -28 -52 -41 -311 -29 -574 -40 -845 -46 -1150
-6 -291 -5 -340 9 -372 23 -54 63 -71 178 -76 87 -4 100 -2 151 22 42 20 60
35 73 63 16 34 16 40 1 107 -21 93 -34 249 -41 526 -7 222 6 546 23 575 6 11
18 -2 47 -52 107 -186 230 -356 318 -441 104 -99 164 -114 253 -63 91 53 240
238 372 463 31 54 60 98 63 98 18 0 23 -60 27 -347 4 -329 -7 -582 -34 -742
-21 -122 -11 -150 72 -188 50 -23 65 -25 152 -21 103 4 152 21 173 59 23 45
11 640 -31 1458 -18 350 -19 364 -41 387 -28 29 -62 31 -120 4 -48 -21 -102
-25 -164 -10 -50 12 -104 -2 -132 -32 -17 -19 -22 -42 -27 -138 -19 -325 -133
-593 -369 -870 l-27 -32 -23 27 c-77 96 -170 226 -207 292 -107 185 -170 421
-170 629 0 47 -5 68 -21 87 -26 34 -82 49 -134 37 -62 -15 -116 -11 -164 10
-55 25 -96 25 -120 1z"/>
<path d="M130 1255 l0 -165 25 0 25 0 0 165 0 165 -25 0 -25 0 0 -165z"/>
<path d="M330 1254 l0 -165 28 3 c15 2 26 6 25 11 -2 4 -3 77 -3 162 l0 155
-25 0 -25 0 0 -166z"/>
<path d="M500 1395 c0 -23 3 -25 50 -25 l50 0 0 -140 0 -140 30 0 30 0 0 140
0 140 55 0 c52 0 55 1 55 25 l0 25 -135 0 -135 0 0 -25z"/>
<path d="M1000 1255 l0 -165 103 0 c75 0 108 4 124 15 44 31 37 114 -11 137
l-25 11 23 18 c50 39 40 110 -19 134 -20 9 -67 15 -115 15 l-80 0 0 -165z
m171 105 c23 -13 24 -33 3 -54 -10 -11 -34 -16 -75 -16 l-59 0 0 40 0 40 56 0
c30 0 64 -5 75 -10z m7 -146 c54 -37 10 -84 -80 -84 l-58 0 0 50 0 50 58 0
c36 0 66 -6 80 -16z"/>
<path d="M1477 1405 c-79 -28 -122 -91 -115 -167 10 -104 100 -165 213 -144
40 8 99 55 121 97 42 82 -15 191 -114 219 -47 13 -58 12 -105 -5z m121 -49
c78 -40 72 -170 -9 -214 -14 -7 -43 -11 -67 -9 -108 11 -145 140 -61 212 35
29 93 34 137 11z"/>
<path d="M1830 1256 l0 -166 30 0 29 0 3 123 3 122 55 -107 c30 -60 59 -108
65 -108 6 0 34 46 62 103 l52 102 0 -117 1 -118 25 0 25 0 0 165 0 165 -29 0
c-27 0 -34 -9 -87 -105 -31 -58 -60 -105 -63 -105 -3 0 -26 46 -51 103 -45
101 -46 102 -83 105 l-37 3 0 -165z"/>
<path d="M2340 1255 l0 -165 94 0 c52 0 106 4 121 10 53 20 56 109 5 138 l-28
16 24 19 c26 20 33 72 14 107 -14 26 -70 40 -157 40 l-73 0 0 -165z m174 99
c36 -36 4 -64 -75 -64 l-59 0 0 40 0 40 59 0 c41 0 65 -5 75 -16z m4 -140 c54
-37 10 -84 -80 -84 l-58 0 0 50 0 50 58 0 c36 0 66 -6 80 -16z"/>
<path d="M2826 1411 c-8 -13 -136 -312 -136 -318 0 -2 12 -3 27 -1 22 2 29 10
36 41 l9 37 92 0 93 0 12 -40 c10 -33 16 -40 37 -40 31 0 35 -17 -49 182 -58
138 -64 148 -89 148 -15 0 -29 -4 -32 -9z m62 -126 c18 -36 32 -68 32 -70 0
-3 -29 -5 -65 -5 -36 0 -65 2 -65 5 0 13 53 135 59 135 4 0 21 -29 39 -65z"/>
<path d="M3091 1398 c6 -13 34 -62 61 -109 41 -75 48 -94 48 -143 0 -53 1 -56
25 -56 24 0 25 3 25 54 0 47 7 67 60 161 33 59 60 109 60 112 0 2 -10 3 -22 1
-15 -2 -36 -26 -66 -75 -24 -40 -47 -73 -50 -73 -4 0 -30 33 -57 73 -34 48
-58 73 -74 75 -21 3 -22 2 -10 -20z"/>
</g>
</svg>
